<svg width="307" height="300" viewBox="0 0 307 300" fill="none" xmlns="http://www.w3.org/2000/svg">
<g clip-path="url(#clip0_2_2)">
<path fill-rule="evenodd" clip-rule="evenodd" d="M272.932 97.7963L273.035 97.1258L272.449 96.7824L175.725 40.0263L175.39 39.8296L175.01 39.9109L87.3032 58.6741L86.9096 58.243L85.4326 59.5916L85.5674 59.7392L28.7094 120.741L28.5608 120.727L28.5425 120.92L28.0102 121.491L27.3456 122.204L28.0413 122.887L82.9742 176.783L83.5264 177.325L84.1895 176.927L151.501 136.499L112.332 248.258L111.884 249.536L113.237 249.588L113.817 249.61L114.212 250.356L115.497 249.675L201.585 252.968L202.123 252.989L202.436 252.551L258.873 173.674L263.045 171.463L262.109 169.696L261.482 170.028L261.832 169.539L261.971 169.345L262.007 169.109L272.932 97.7963ZM257.52 172.128L260.026 168.626L155.373 133.737L155.249 134.267L154.467 134.084L154.305 134.546L114.667 247.641L115.036 247.656L257.52 172.128ZM119.019 247.808L201.123 250.949L254.911 175.774L119.019 247.808ZM151.226 134.331L30.9759 122.964L83.8228 174.814L151.226 134.331ZM31.222 120.978L151.899 132.385L86.9203 61.2209L31.222 120.978ZM88.8655 60.3852L153.834 131.539L174.804 42L88.8655 60.3852ZM176.65 42.8884L155.831 131.781L260.363 166.631L270.852 98.1641L176.65 42.8884Z" fill="#001660"/>
<circle cx="86.5228" cy="60.3299" r="23.6992" transform="rotate(34.1058 86.5228 60.3299)" fill="#1E40AF"/>
<circle cx="261.018" cy="168.957" r="15.7995" transform="rotate(34.1058 261.018 168.957)" fill="#1E40AF"/>
<circle cx="113.275" cy="248.589" r="10.533" transform="rotate(34.1058 113.275 248.589)" fill="#1E40AF"/>
<circle cx="28.3725" cy="122.718" r="10.533" transform="rotate(34.1058 28.3725 122.718)" fill="#1E40AF"/>
<circle cx="84.2197" cy="176.439" r="15.7995" transform="rotate(34.1058 84.2197 176.439)" fill="#001660"/>
<circle cx="271.029" cy="97.8209" r="15.7995" transform="rotate(34.1058 271.029 97.8209)" fill="#001660"/>
<circle cx="175.764" cy="41.2579" r="15.7995" transform="rotate(34.1058 175.764 41.2579)" fill="#001660"/>
<circle cx="153.907" cy="134.584" r="10.533" transform="rotate(34.1058 153.907 134.584)" fill="#001660"/>
<circle cx="201.254" cy="252.514" r="23.6992" transform="rotate(34.1058 201.254 252.514)" fill="#001660"/>
</g>
<defs>
<clipPath id="clip0_2_2">
<rect width="307" height="300" fill="white"/>
</clipPath>
</defs>
</svg>
